<?xml version="1.0" encoding="UTF-8"?>
<svg width="219px" height="24px" viewBox="0 0 219 24" version="1.1" xmlns="http://www.w3.org/2000/svg" xmlns:xlink="http://www.w3.org/1999/xlink">
    <!-- Generator: Sketch 60.1 (88133) - https://sketch.com -->
    <title>Pokemon-Company Logo</title>
    <desc>Created with Sketch.</desc>
    <defs>
        <polygon id="path-1" points="0 2.83079359e-15 88.2891536 0 88.2891536 19.6412192 0 19.6412192"></polygon>
        <polygon id="path-3" points="91.8219533 22.1451954 6.79390462e-14 22.1451954 0 0 91.8219533 0"></polygon>
        <polygon id="path-5" points="1.86830714e-15 18.8825086 1.86830714e-15 0 36.9470248 0 36.9470248 18.8825086"></polygon>
    </defs>
    <g id="Symbols" stroke="none" stroke-width="1" fill="none" fill-rule="evenodd">
        <g id="Footer" transform="translate(-490.000000, -63.000000)">
            <g id="Pokemon-Company-Logo" transform="translate(490.000000, 63.000000)">
                <g id="Page-1">
                    <g id="Group-3" transform="translate(37.449485, 0.157049)">
                        <mask id="mask-2" fill="white">
                            <use xlink:href="#path-1"></use>
                        </mask>
                        <g id="Clip-2"></g>
                        <path d="M82.3414583,4.92800047 C81.6932634,4.92800047 81.0717613,5.00090745 80.5012543,5.15349418 L74.4451944,5.15349418 C73.925284,5.15349418 73.4894358,5.52958263 73.3966088,6.02519071 C72.1691422,5.32639925 70.6695692,4.92800047 68.9863343,4.92800047 C66.7278117,4.92800047 64.8035456,5.64033749 63.4099466,6.85226658 C62.4721159,5.57619528 60.9769253,4.92800047 58.9331395,4.92800047 C57.663841,4.92800047 56.4937438,5.25110188 55.5073084,5.87260398 C54.6113096,5.25986665 53.4941994,4.92800047 52.2555776,4.92800047 C51.6053908,4.92800047 50.9926535,5.00090745 50.421748,5.15349418 L45.4608864,5.15349418 L44.4166832,0.818517053 C44.2708692,0.225699668 43.6844262,-0.126086455 43.0983816,0.0420378307 C42.5187114,0.201397343 34.1160827,2.50812628 34.1160827,2.50812628 C33.5519501,2.66748579 33.2180919,3.24914801 33.3706786,3.81766307 C33.520875,4.38378774 33.7332215,5.15349418 33.7332215,5.15349418 L30.3492223,5.15349418 L30.3492223,1.83164515 C30.3492223,1.24520215 29.8735341,0.758757236 29.2807167,0.758757236 L23.700345,0.758757236 C23.109918,0.758757236 22.6298475,1.24520215 22.6298475,1.83164515 L22.6298475,6.01403554 C21.4023809,5.31723608 19.9115726,4.92800047 18.2458673,4.92800047 C16.6952993,4.92800047 15.3040907,5.25986665 14.1320015,5.86822159 C13.3953622,3.8088983 11.4001811,1.75833977 6.38832444,1.75833977 L1.06651353,1.75833977 C0.473297751,1.75833977 0,2.2384103 0,2.82445491 L0,18.3452746 C0,18.9357016 0.473297751,19.4133817 1.06651353,19.4133817 L6.76401449,19.4133817 C7.35045749,19.4133817 7.83012962,18.9357016 7.83012962,18.3452746 L7.83012962,14.7066985 C8.81895539,14.6449467 9.71893824,14.4457473 10.5153374,14.1425659 C11.3161189,17.4560485 14.2710427,19.6412658 18.2458673,19.6412658 C19.9247198,19.6412658 21.4199104,19.2476478 22.6517594,18.548458 C22.7469767,19.0376917 23.1760522,19.4133817 23.700345,19.4133817 L37.9004727,19.4133817 C38.5594243,19.5615861 39.2586142,19.6412658 39.9996359,19.6412658 C40.8777068,19.6412658 41.7071731,19.5683588 42.4880347,19.4133817 L63.5294663,19.4133817 C64.0513687,19.4133817 64.4872169,19.0376917 64.5780518,18.544474 C65.8055185,19.2476478 67.3007091,19.6412658 68.9863343,19.6412658 C70.6695692,19.6412658 72.1691422,19.2476478 73.3966088,18.544474 C73.4894358,19.0376917 73.925284,19.4133817 74.4451944,19.4133817 L87.2206481,19.4133817 C87.8070911,19.4133817 88.2891536,18.9357016 88.2891536,18.3452746 L88.2891536,11.0505929 C88.2891536,7.38333215 85.8983626,4.92800047 82.3414583,4.92800047" id="Fill-1" fill="#000000" mask="url(#mask-2)"></path>
                    </g>
                    <g id="Group-6" transform="translate(126.292413, 1.750644)">
                        <mask id="mask-4" fill="white">
                            <use xlink:href="#path-3"></use>
                        </mask>
                        <g id="Clip-5"></g>
                        <path d="M90.7265574,3.63180328 L84.9294567,3.63180328 C84.4916165,3.63180328 84.0378403,3.95689668 83.9139382,4.3752154 C83.7792795,4.78875334 83.5888448,5.3879451 83.5888448,5.3879451 L83.2506043,4.36166984 C83.1175391,3.9525143 82.6645597,3.63180328 82.2374762,3.63180328 L75.9049276,3.63180328 C75.3431853,3.48160694 74.7503679,3.40192718 74.1157186,3.40192718 C73.4631414,3.40192718 72.8504041,3.47483416 72.2755147,3.62742089 L66.2190564,3.62742089 C65.7943633,3.62742089 65.4318204,3.87721693 65.2569234,4.24015822 C64.2107282,3.69594548 62.9390393,3.40192718 61.4613782,3.40192718 C59.6474685,3.40192718 58.1327564,3.67363515 56.6682425,4.25768776 L55.3591041,4.79512772 C54.345976,3.93498475 53.043212,3.40192718 51.5081815,3.40192718 C50.8599867,3.40192718 50.2297198,3.48160694 49.650448,3.63180328 L43.49439,3.63180328 C43.1935989,3.63180328 42.9171102,3.76247808 42.7226916,3.96566146 C41.9350572,3.5919634 40.9928441,3.40192718 39.8825067,3.40192718 C38.604045,3.40192718 37.4359398,3.72463019 36.4538868,4.34613229 C35.5562943,3.73339497 34.4435665,3.40192718 33.2001639,3.40192718 C32.5567499,3.40192718 31.9308654,3.47483416 31.3643424,3.62742089 L25.3106729,3.62742089 C24.7839897,3.62742089 24.3509302,4.00350934 24.2620873,4.49871902 C23.0302383,3.79992756 21.53943,3.40192718 19.8561952,3.40192718 C18.3167823,3.40192718 16.9343385,3.73339497 15.7730061,4.32621235 L15.985751,2.16290698 C16.0407301,1.67407167 15.6981071,1.17009722 15.2287934,1.02627526 C14.7642604,0.893608464 14.3861799,0.778471216 14.3861799,0.778471216 C13.1587133,0.41792032 11.5372303,0 9.80339878,0 C3.84454823,0 0,3.57881624 0,9.11735608 C0,15.3327754 4.9301849,18.1151925 9.82531071,18.1151925 C11.8758692,18.1151925 13.1981548,17.7920911 14.2582939,17.5291479 L15.7244014,17.1642146 C16.900873,17.7745616 18.2968624,18.1151925 19.8561952,18.1151925 C21.53943,18.1151925 23.0302383,17.7215745 24.2620873,17.0223847 C24.3509302,17.51122 24.7839897,17.8873084 25.3106729,17.8873084 L42.4326573,17.8873084 L42.4326573,20.847013 C42.4326573,21.4462047 42.9107358,21.9171121 43.49439,21.9171121 L49.0926897,21.9171121 C49.6767423,21.9171121 50.1496416,21.4462047 50.1496416,20.847013 L50.1496416,18.0355128 C50.4970454,18.0908902 50.8556043,18.1151925 51.2137648,18.1151925 C52.9456043,18.1151925 54.4388029,17.5247655 55.5734426,16.4893271 C56.6196378,17.509228 58.1391308,18.1151925 59.97057,18.1151925 C60.5813153,18.1151925 61.1562047,18.0422856 61.6960351,17.8873084 L76.4822074,17.8873084 L76.2455585,20.5390507 C76.2104994,21.0545787 76.5818071,21.5657244 77.0973351,21.6760808 C77.601708,21.7804613 78.0128555,21.8685074 78.0128555,21.8685074 C78.8753889,22.0613324 79.7247751,22.1453946 80.6140011,22.1453946 C85.0577411,22.1453946 86.3628955,18.741077 87.3182558,16.2550686 L91.7197655,5.08476363 C92.0360942,4.27999809 91.5938715,3.63180328 90.7265574,3.63180328 M7.94526687,9.11735608 C7.94526687,8.60182806 8.09108082,6.91421083 9.99781738,6.91421083 C10.851586,6.91421083 11.6125276,7.12456538 12.4666946,7.59308235 L12.5639039,7.63969501 C12.1412028,8.57075295 11.9045539,9.62372093 11.9045539,10.7695158 C11.9045539,10.833658 11.9196931,10.8978002 11.9196931,10.9643328 C11.3448037,11.1121388 10.7830614,11.2097465 10.2898437,11.2097465 C9.21934617,11.2097465 7.94526687,10.8424228 7.94526687,9.11735608" id="Fill-4" fill="#000000" mask="url(#mask-4)"></path>
                    </g>
                    <g id="Group-9" transform="translate(0.000000, 0.953846)">
                        <mask id="mask-6" fill="white">
                            <use xlink:href="#path-5"></use>
                        </mask>
                        <g id="Clip-8"></g>
                        <path d="M29.7651697,4.16924323 C27.6018643,4.16924323 25.7660427,4.8971178 24.4477411,6.14888677 C23.4039363,4.8971178 21.8203012,4.16924323 19.8848799,4.16924323 C19.4558044,4.16924323 19.0398761,4.20231033 18.6394853,4.28438048 L18.6394853,1.07288791 C18.6394853,0.48644491 18.1618052,0 17.5713782,0 L11.9882177,0 C11.4244834,0 10.9619424,0.446605032 10.9332577,0.999582539 L1.06850553,0.999582539 C0.475688143,0.999582539 0,1.47965307 0,2.06569767 L0,6.84807663 C0,7.43173084 0.475688143,7.90941098 1.06850553,7.90941098 L3.2979451,7.90941098 L3.2979451,17.5865173 C3.2979451,18.1769443 3.77801563,18.6546245 4.37083302,18.6546245 L24.7708425,18.6546245 C25.2927449,18.6546245 25.7242108,18.276544 25.8146474,17.7857167 C27.0445044,18.4888906 28.539695,18.8825086 30.2253202,18.8825086 C31.8643328,18.8825086 33.3639058,18.615183 34.6690602,18.1040374 L35.3455414,17.8387038 C35.7216298,17.688109 36.0204289,17.2482768 36.0204289,16.847886 L36.0204289,14.6646607 L36.9471045,14.6646607 L36.9471045,12.5324304 L36.9471045,11.9021636 C36.9471045,7.13093976 34.1909817,4.16924323 29.7651697,4.16924323" id="Fill-7" fill="#000000" mask="url(#mask-6)"></path>
                    </g>
                    <path d="M140.417507,17.065284 C139.393622,17.3174705 138.265356,17.6051144 136.447064,17.6051144 C132.877013,17.6051144 128.75,15.8003679 128.75,10.7371178 C128.75,6.07226649 132.005715,3.75 136.42077,3.75 C137.783294,3.75 139.103587,4.05517347 140.391212,4.44440907 L140.10556,7.33558902 C138.957774,6.70293176 137.847436,6.40413267 136.615189,6.40413267 C134.082966,6.40413267 132.430408,8.24433664 132.430408,10.7371178 C132.430408,13.3717289 134.294914,14.9529737 136.906817,14.9529737 C138.074922,14.9529737 139.264939,14.6501906 140.244602,14.2673294 C140.244602,14.2673294 140.417507,17.065284 140.417507,17.065284" id="Fill-10" fill="#FFFFFF"></path>
                    <path d="M140,12.7421311 C140,9.41988372 142.510709,7.5 145.815029,7.5 C149.112974,7.5 151.630057,9.41988372 151.630057,12.7421311 C151.630057,16.0400762 149.112974,17.9575696 145.815029,17.9575696 C142.510709,17.9575696 140,16.0400762 140,12.7421311 M148.058014,12.7421311 C148.058014,11.2469405 147.405437,9.92186618 145.815029,9.92186618 C144.222629,9.92186618 143.572442,11.2469405 143.572442,12.7421311 C143.572442,14.2217842 144.222629,15.5468586 145.815029,15.5468586 C147.405437,15.5468586 148.058014,14.2217842 148.058014,12.7421311" id="Fill-12" fill="#FFFFFF"></path>
                    <path d="M152.5,7.73465688 L155.643366,7.73465688 L155.643366,9.58163363 L155.689581,9.58163363 C156.373233,8.13703965 157.755278,7.5 159.328157,7.5 C160.754823,7.5 161.920538,8.11512772 162.455587,9.41988372 C163.267524,8.07967022 164.585825,7.5 166.003727,7.5 C168.878971,7.5 169.53593,9.13702059 169.53593,11.8421483 L169.53593,17.7276935 L166.085797,17.7276935 L166.085797,12.3528955 C166.085797,11.229411 165.683016,10.3776344 164.707735,10.3776344 C163.471106,10.3776344 162.745621,11.355305 162.745621,13.5074552 L162.745621,17.7276935 L159.288317,17.7276935 L159.288317,12.3528955 C159.288317,11.229411 158.887926,10.3776344 157.910255,10.3776344 C156.689562,10.3776344 155.957305,11.355305 155.957305,13.5074552 L155.957305,17.7276935 L152.5,17.7276935 L152.5,7.73465688 Z" id="Fill-14" fill="#FFFFFF"></path>
                    <path d="M171.25,7.73465688 L174.4348,7.73465688 L174.4348,9.53063858 L174.468265,9.53063858 C175.164666,8.13703965 176.622408,7.5 178.197278,7.5 C180.962165,7.5 182.479666,10.123456 182.479666,12.5477125 C182.479666,15.5006443 180.880494,17.957968 177.900869,17.957968 C176.695713,17.957968 175.396933,17.5177373 174.740372,16.3301106 L174.707305,16.3301106 L174.707305,21.7622779 L171.25,21.7622779 L171.25,7.73465688 Z M176.812842,10.1453679 C175.549918,10.1453679 174.707305,11.2624781 174.707305,12.7600591 C174.707305,14.2221826 175.664657,15.3058273 176.812842,15.3058273 C178.117598,15.3058273 178.902842,14.2221826 178.902842,12.6206195 C178.902842,11.2979356 178.157438,10.1453679 176.812842,10.1453679 L176.812842,10.1453679 Z" id="Fill-16" fill="#FFFFFF"></path>
                    <path d="M189.526958,17.7300839 C189.500663,17.1970263 189.452059,16.6751239 189.452059,16.1552135 L189.409828,16.1552135 C188.624584,17.4049905 187.664842,17.95996 186.253315,17.95996 C184.269687,17.95996 182.5,16.9822894 182.5,14.818984 C182.5,11.7692413 185.819857,11.404308 187.664842,11.404308 C188.222202,11.404308 188.834939,11.4572951 189.277162,11.5345844 C189.257242,10.1720606 188.237739,9.80712734 186.992345,9.80712734 C185.880015,9.80712734 184.767287,10.0170835 183.807545,10.5545234 L183.752167,8.21233702 C184.979634,7.71473694 186.264868,7.5 187.74253,7.5 C190.297063,7.5 192.499809,8.59958063 192.499809,11.6453393 L192.499809,15.3767423 C192.499809,16.1552135 192.537657,16.9424495 192.696618,17.7300839 L189.526958,17.7300839 Z M187.142939,15.655223 C188.454468,15.655223 189.277162,14.4719787 189.277162,13.299491 C188.834939,13.2839535 188.334949,13.2397312 187.819819,13.2397312 C186.645339,13.2397312 185.725038,13.6026725 185.725038,14.567196 C185.725038,15.2548323 186.342158,15.655223 187.142939,15.655223 L187.142939,15.655223 Z" id="Fill-18" fill="#FFFFFF"></path>
                    <path d="M193.75,7.73465688 L196.890578,7.73465688 L196.890578,9.58163363 L196.932409,9.58163363 C197.629209,8.13703965 199.00488,7.5 200.580149,7.5 C203.296432,7.5 204.398004,9.41988372 204.398004,11.4947446 L204.398004,17.7276935 L200.94309,17.7276935 L200.94309,12.8903355 C200.94309,11.012682 200.290513,10.3776344 199.352682,10.3776344 C197.934781,10.3776344 197.202524,11.355305 197.202524,13.5074552 L197.202524,17.7276935 L193.75,17.7276935 L193.75,7.73465688 Z" id="Fill-20" fill="#FFFFFF"></path>
                    <path d="M204.689823,18.8910179 C205.149973,19.0392223 205.570284,19.0985837 206.049956,19.0985837 C206.89496,19.0985837 207.549928,18.6057644 207.792951,17.7229127 L203.75,7.5 L207.468256,7.5 L209.620008,14.0225848 L209.655465,14.0225848 L211.708016,7.5 L215.16532,7.5 L211.498059,16.7986275 C210.516006,19.3133206 209.770602,21.7531148 206.614089,21.7531148 C205.884222,21.7531148 205.171885,21.673435 204.459947,21.5252307 L204.689823,18.8910179 Z" id="Fill-22" fill="#FFFFFF"></path>
                    <path d="M40,3.75 L44.2533054,3.75 C48.3456576,3.75 50.2587686,5.12367899 50.2587686,8.13597217 C50.2587686,10.8434903 48.2878898,12.4625829 44.9457225,12.4625829 L43.5656691,12.4625829 L43.5656691,17.138191 L40,17.138191 L40,3.75 Z M43.5656691,9.92996188 L44.4879623,9.92996188 C45.7178193,9.92996188 46.6911075,9.48295844 46.6911075,8.08099314 C46.6911075,6.72484369 45.7178193,6.28023065 44.4879623,6.28023065 L43.5656691,6.28023065 L43.5656691,9.92996188 Z" id="Fill-24" fill="#FFFFFF"></path>
                    <path d="M50,12.7421311 C50,9.41988372 52.5103107,7.5 55.8126382,7.5 C59.1105833,7.5 61.6232844,9.41988372 61.6232844,12.7421311 C61.6232844,16.0400762 59.1105833,17.9575696 55.8126382,17.9575696 C52.5103107,17.9575696 50,16.0400762 50,12.7421311 M58.0580137,12.7421311 C58.0580137,11.2469405 57.4030461,9.92186618 55.8126382,9.92186618 C54.2134655,9.92186618 53.5656691,11.2469405 53.5656691,12.7421311 C53.5656691,14.2217842 54.2134655,15.5468586 55.8126382,15.5468586 C57.4030461,15.5468586 58.0580137,14.2217842 58.0580137,12.7421311" id="Fill-26" fill="#FFFFFF"></path>
                    <polygon id="Fill-28" fill="#FFFFFF" points="62.5 2.5 65.9529222 2.5 65.9529222 11.0978441 65.9971445 11.0978441 68.8767709 6.89513534 72.6504041 6.89513534 69.1711876 11.4735341 72.938048 16.8881719 68.7576496 16.8881719 65.9971445 11.9404575 65.9529222 11.9404575 65.9529222 16.8881719 62.5 16.8881719"></polygon>
                    <polygon id="Fill-30" fill="#FFFFFF" points="74.1503908 5.86646969 81.1175886 4.47287076 80.6490717 2.5 73.75 4.39757339"></polygon>
                    <path d="M75.9927621,13.7397217 C76.1851887,15.1177831 77.2445311,15.655223 78.9233835,15.655223 C79.8655966,15.655223 80.9496397,15.4472589 81.9846798,14.8922894 L81.9846798,17.3316851 C80.8655776,17.7719157 79.5978727,17.95996 78.315427,17.95996 C75.0170835,17.95996 72.5,16.0269291 72.5,12.7265936 C72.5,9.42227411 74.7473675,7.5 77.852886,7.5 C81.5575963,7.5 82.9002002,10.125448 82.9002002,13.1090564 L82.9002002,13.7397217 L75.9927621,13.7397217 Z M79.7926897,11.7819901 C79.7926897,10.6298208 79.2552497,9.6895997 77.8751963,9.6895997 C76.621037,9.6895997 76.032602,10.6298208 75.9549142,11.7819901 L79.7926897,11.7819901 Z" id="Fill-32" fill="#FFFFFF"></path>
                    <path d="M83.75,7.73465688 L86.8997408,7.73465688 L86.8997408,9.58163363 L86.9415726,9.58163363 C87.6319977,8.13703965 89.0076687,7.5 90.5845311,7.5 C92.0000419,7.5 93.1725295,8.11512772 93.7123599,9.41988372 C94.5195158,8.07967022 95.8445902,7.5 97.260101,7.5 C100.140126,7.5 100.787922,9.13702059 100.787922,11.8421483 L100.787922,17.7276935 L97.3397808,17.7276935 L97.3397808,12.3528955 C97.3397808,11.229411 96.9282348,10.3776344 95.957337,10.3776344 C94.7298704,10.3776344 94.0019958,11.355305 94.0019958,13.5074552 L94.0019958,17.7276935 L90.5446912,17.7276935 L90.5446912,12.3528955 C90.5446912,11.229411 90.1443004,10.3776344 89.1690202,10.3776344 C87.9391632,10.3776344 87.2049142,11.355305 87.2049142,13.5074552 L87.2049142,17.7276935 L83.75,17.7276935 L83.75,7.73465688 Z" id="Fill-34" fill="#FFFFFF"></path>
                    <path d="M101.25,12.7421311 C101.25,9.41988372 103.75792,7.5 107.062638,7.5 C110.362974,7.5 112.873284,9.41988372 112.873284,12.7421311 C112.873284,16.0400762 110.362974,17.9575696 107.062638,17.9575696 C103.75792,17.9575696 101.25,16.0400762 101.25,12.7421311 M109.305623,12.7421311 C109.305623,11.2469405 108.653046,9.92186618 107.062638,9.92186618 C105.467848,9.92186618 104.824434,11.2469405 104.824434,12.7421311 C104.824434,14.2217842 105.467848,15.5468586 107.062638,15.5468586 C108.653046,15.5468586 109.305623,14.2217842 109.305623,12.7421311" id="Fill-36" fill="#FFFFFF"></path>
                    <path d="M113.75,7.73465688 L116.895358,7.73465688 L116.895358,9.58163363 L116.932808,9.58163363 C117.620843,8.13703965 119.003286,7.5 120.580547,7.5 C123.300814,7.5 124.395614,9.41988372 124.395614,11.4947446 L124.395614,17.7276935 L120.938708,17.7276935 L120.938708,12.8903355 C120.938708,11.012682 120.290513,10.3776344 119.3483,10.3776344 C117.928008,10.3776344 117.202524,11.355305 117.202524,13.5074552 L117.202524,17.7276935 L113.75,17.7276935 L113.75,7.73465688 Z" id="Fill-38" fill="#FFFFFF"></path>
                    <polygon id="Fill-40" fill="#FFFFFF" points="5.79555471 6.39775829 2.5 6.39775829 2.5 3.75 12.6699257 3.75 12.6699257 6.39775829 9.36560618 6.39775829 9.36560618 17.136199 5.79555471 17.136199"></polygon>
                    <path d="M12.5,2.5 L15.9569062,2.5 L15.9569062,8.36801563 L15.9947541,8.36801563 C16.7445406,7.33536599 17.8393404,6.66047846 19.3345311,6.66047846 C22.0551963,6.66047846 23.1523866,8.58036218 23.1523866,10.6576134 L23.1523866,16.8881719 L19.6974724,16.8881719 L19.6974724,12.050814 C19.6974724,10.1751525 19.0425048,9.54050324 18.1094548,9.54050324 C16.6871712,9.54050324 15.9569062,10.5157835 15.9569062,12.6703241 L15.9569062,16.8881719 L12.5,16.8881719 L12.5,2.5 Z" id="Fill-42" fill="#FFFFFF"></path>
                    <path d="M28.4903717,13.7397217 C28.6784159,15.1177831 29.7333759,15.655223 31.4253755,15.655223 C32.3655966,15.655223 33.4404766,15.4472589 34.4735246,14.8922894 L34.4735246,17.3316851 C33.3651792,17.7719157 32.0934903,17.95996 30.8106462,17.95996 C27.5107091,17.95996 25,16.0269291 25,12.7265936 C25,9.42227411 27.2382043,7.5 30.3504956,7.5 C34.0488315,7.5 35.4002002,10.125448 35.4002002,13.1090564 L35.4002002,13.7397217 L28.4903717,13.7397217 Z M32.2859169,11.7819901 C32.2859169,10.6298208 31.7528593,9.6895997 30.3636428,9.6895997 C29.125021,9.6895997 28.5278212,10.6298208 28.4525238,11.7819901 L32.2859169,11.7819901 Z" id="Fill-44" fill="#FFFFFF"></path>
                </g>
            </g>
        </g>
    </g>
</svg>